<?xml version="1.0" encoding="utf-8" standalone="no"?>
<!DOCTYPE svg PUBLIC "-//W3C//DTD SVG 1.1//EN"
  "http://www.w3.org/Graphics/SVG/1.1/DTD/svg11.dtd">
<!-- Created with matplotlib (http://matplotlib.org/) -->
<svg height="511pt" version="1.1" viewBox="0 0 945 511" width="945pt" xmlns="http://www.w3.org/2000/svg" xmlns:xlink="http://www.w3.org/1999/xlink">
 <defs>
  <style type="text/css">
*{stroke-linecap:butt;stroke-linejoin:round;}
  </style>
 </defs>
 <g id="figure_1">
  <g id="patch_1">
   <path d="M 0 511.2 
L 945.36 511.2 
L 945.36 0 
L 0 0 
z
" style="fill:#ffffff;"/>
  </g>
  <g id="axes_1">
   <g id="patch_2">
    <path d="M 118.17 408.96 
L 850.824 408.96 
L 850.824 61.344 
L 118.17 61.344 
z
" style="fill:#ffffff;"/>
   </g>
   <g id="matplotlib.axis_1">
    <g id="xtick_1">
     <g id="line2d_1">
      <defs>
       <path d="M 0 0 
L 0 3.5 
" id="mcf0da84ef7" style="stroke:#000000;stroke-width:0.8;"/>
      </defs>
      <g>
       <use style="stroke:#000000;stroke-width:0.8;" x="151.472455" xlink:href="#mcf0da84ef7" y="408.96"/>
      </g>
     </g>
     <g id="text_1">
      <!-- Mon 00:00 -->
      <defs>
       <path d="M 9.8125 72.90625 
L 24.515625 72.90625 
L 43.109375 23.296875 
L 61.8125 72.90625 
L 76.515625 72.90625 
L 76.515625 0 
L 66.890625 0 
L 66.890625 64.015625 
L 48.09375 14.015625 
L 38.1875 14.015625 
L 19.390625 64.015625 
L 19.390625 0 
L 9.8125 0 
z
" id="DejaVuSans-4d"/>
       <path d="M 30.609375 48.390625 
Q 23.390625 48.390625 19.1875 42.75 
Q 14.984375 37.109375 14.984375 27.296875 
Q 14.984375 17.484375 19.15625 11.84375 
Q 23.34375 6.203125 30.609375 6.203125 
Q 37.796875 6.203125 41.984375 11.859375 
Q 46.1875 17.53125 46.1875 27.296875 
Q 46.1875 37.015625 41.984375 42.703125 
Q 37.796875 48.390625 30.609375 48.390625 
M 30.609375 56 
Q 42.328125 56 49.015625 48.375 
Q 55.71875 40.765625 55.71875 27.296875 
Q 55.71875 13.875 49.015625 6.21875 
Q 42.328125 -1.421875 30.609375 -1.421875 
Q 18.84375 -1.421875 12.171875 6.21875 
Q 5.515625 13.875 5.515625 27.296875 
Q 5.515625 40.765625 12.171875 48.375 
Q 18.84375 56 30.609375 56 
" id="DejaVuSans-6f"/>
       <path d="M 54.890625 33.015625 
L 54.890625 0 
L 45.90625 0 
L 45.90625 32.71875 
Q 45.90625 40.484375 42.875 44.328125 
Q 39.84375 48.1875 33.796875 48.1875 
Q 26.515625 48.1875 22.3125 43.546875 
Q 18.109375 38.921875 18.109375 30.90625 
L 18.109375 0 
L 9.078125 0 
L 9.078125 54.6875 
L 18.109375 54.6875 
L 18.109375 46.1875 
Q 21.34375 51.125 25.703125 53.5625 
Q 30.078125 56 35.796875 56 
Q 45.21875 56 50.046875 50.171875 
Q 54.890625 44.34375 54.890625 33.015625 
" id="DejaVuSans-6e"/>
       <path id="DejaVuSans-20"/>
       <path d="M 31.78125 66.40625 
Q 24.171875 66.40625 20.328125 58.90625 
Q 16.5 51.421875 16.5 36.375 
Q 16.5 21.390625 20.328125 13.890625 
Q 24.171875 6.390625 31.78125 6.390625 
Q 39.453125 6.390625 43.28125 13.890625 
Q 47.125 21.390625 47.125 36.375 
Q 47.125 51.421875 43.28125 58.90625 
Q 39.453125 66.40625 31.78125 66.40625 
M 31.78125 74.21875 
Q 44.046875 74.21875 50.515625 64.515625 
Q 56.984375 54.828125 56.984375 36.375 
Q 56.984375 17.96875 50.515625 8.265625 
Q 44.046875 -1.421875 31.78125 -1.421875 
Q 19.53125 -1.421875 13.0625 8.265625 
Q 6.59375 17.96875 6.59375 36.375 
Q 6.59375 54.828125 13.0625 64.515625 
Q 19.53125 74.21875 31.78125 74.21875 
" id="DejaVuSans-30"/>
       <path d="M 11.71875 12.40625 
L 22.015625 12.40625 
L 22.015625 0 
L 11.71875 0 
z
M 11.71875 51.703125 
L 22.015625 51.703125 
L 22.015625 39.3125 
L 11.71875 39.3125 
z
" id="DejaVuSans-3a"/>
      </defs>
      <g transform="translate(104.4629 449.081065)rotate(-30)scale(0.1 -0.1)">
       <use xlink:href="#DejaVuSans-4d"/>
       <use x="86.279297" xlink:href="#DejaVuSans-6f"/>
       <use x="147.460938" xlink:href="#DejaVuSans-6e"/>
       <use x="210.839844" xlink:href="#DejaVuSans-20"/>
       <use x="242.626953" xlink:href="#DejaVuSans-30"/>
       <use x="306.25" xlink:href="#DejaVuSans-30"/>
       <use x="369.873047" xlink:href="#DejaVuSans-3a"/>
       <use x="403.564453" xlink:href="#DejaVuSans-30"/>
       <use x="467.1875" xlink:href="#DejaVuSans-30"/>
      </g>
     </g>
    </g>
    <g id="xtick_2">
     <g id="line2d_2">
      <g>
       <use style="stroke:#000000;stroke-width:0.8;" x="171.414044" xlink:href="#mcf0da84ef7" y="408.96"/>
      </g>
     </g>
     <g id="text_2">
      <!-- Mon 05:00 -->
      <defs>
       <path d="M 10.796875 72.90625 
L 49.515625 72.90625 
L 49.515625 64.59375 
L 19.828125 64.59375 
L 19.828125 46.734375 
Q 21.96875 47.46875 24.109375 47.828125 
Q 26.265625 48.1875 28.421875 48.1875 
Q 40.625 48.1875 47.75 41.5 
Q 54.890625 34.8125 54.890625 23.390625 
Q 54.890625 11.625 47.5625 5.09375 
Q 40.234375 -1.421875 26.90625 -1.421875 
Q 22.3125 -1.421875 17.546875 -0.640625 
Q 12.796875 0.140625 7.71875 1.703125 
L 7.71875 11.625 
Q 12.109375 9.234375 16.796875 8.0625 
Q 21.484375 6.890625 26.703125 6.890625 
Q 35.15625 6.890625 40.078125 11.328125 
Q 45.015625 15.765625 45.015625 23.390625 
Q 45.015625 31 40.078125 35.4375 
Q 35.15625 39.890625 26.703125 39.890625 
Q 22.75 39.890625 18.8125 39.015625 
Q 14.890625 38.140625 10.796875 36.28125 
z
" id="DejaVuSans-35"/>
      </defs>
      <g transform="translate(124.404489 449.081065)rotate(-30)scale(0.1 -0.1)">
       <use xlink:href="#DejaVuSans-4d"/>
       <use x="86.279297" xlink:href="#DejaVuSans-6f"/>
       <use x="147.460938" xlink:href="#DejaVuSans-6e"/>
       <use x="210.839844" xlink:href="#DejaVuSans-20"/>
       <use x="242.626953" xlink:href="#DejaVuSans-30"/>
       <use x="306.25" xlink:href="#DejaVuSans-35"/>
       <use x="369.873047" xlink:href="#DejaVuSans-3a"/>
       <use x="403.564453" xlink:href="#DejaVuSans-30"/>
       <use x="467.1875" xlink:href="#DejaVuSans-30"/>
      </g>
     </g>
    </g>
    <g id="xtick_3">
     <g id="line2d_3">
      <g>
       <use style="stroke:#000000;stroke-width:0.8;" x="191.355634" xlink:href="#mcf0da84ef7" y="408.96"/>
      </g>
     </g>
     <g id="text_3">
      <!-- Mon 10:00 -->
      <defs>
       <path d="M 12.40625 8.296875 
L 28.515625 8.296875 
L 28.515625 63.921875 
L 10.984375 60.40625 
L 10.984375 69.390625 
L 28.421875 72.90625 
L 38.28125 72.90625 
L 38.28125 8.296875 
L 54.390625 8.296875 
L 54.390625 0 
L 12.40625 0 
z
" id="DejaVuSans-31"/>
      </defs>
      <g transform="translate(144.346079 449.081065)rotate(-30)scale(0.1 -0.1)">
       <use xlink:href="#DejaVuSans-4d"/>
       <use x="86.279297" xlink:href="#DejaVuSans-6f"/>
       <use x="147.460938" xlink:href="#DejaVuSans-6e"/>
       <use x="210.839844" xlink:href="#DejaVuSans-20"/>
       <use x="242.626953" xlink:href="#DejaVuSans-31"/>
       <use x="306.25" xlink:href="#DejaVuSans-30"/>
       <use x="369.873047" xlink:href="#DejaVuSans-3a"/>
       <use x="403.564453" xlink:href="#DejaVuSans-30"/>
       <use x="467.1875" xlink:href="#DejaVuSans-30"/>
      </g>
     </g>
    </g>
    <g id="xtick_4">
     <g id="line2d_4">
      <g>
       <use style="stroke:#000000;stroke-width:0.8;" x="211.297223" xlink:href="#mcf0da84ef7" y="408.96"/>
      </g>
     </g>
     <g id="text_4">
      <!-- Mon 15:00 -->
      <g transform="translate(164.287668 449.081065)rotate(-30)scale(0.1 -0.1)">
       <use xlink:href="#DejaVuSans-4d"/>
       <use x="86.279297" xlink:href="#DejaVuSans-6f"/>
       <use x="147.460938" xlink:href="#DejaVuSans-6e"/>
       <use x="210.839844" xlink:href="#DejaVuSans-20"/>
       <use x="242.626953" xlink:href="#DejaVuSans-31"/>
       <use x="306.25" xlink:href="#DejaVuSans-35"/>
       <use x="369.873047" xlink:href="#DejaVuSans-3a"/>
       <use x="403.564453" xlink:href="#DejaVuSans-30"/>
       <use x="467.1875" xlink:href="#DejaVuSans-30"/>
      </g>
     </g>
    </g>
    <g id="xtick_5">
     <g id="line2d_5">
      <g>
       <use style="stroke:#000000;stroke-width:0.8;" x="231.238813" xlink:href="#mcf0da84ef7" y="408.96"/>
      </g>
     </g>
     <g id="text_5">
      <!-- Mon 20:00 -->
      <defs>
       <path d="M 19.1875 8.296875 
L 53.609375 8.296875 
L 53.609375 0 
L 7.328125 0 
L 7.328125 8.296875 
Q 12.9375 14.109375 22.625 23.890625 
Q 32.328125 33.6875 34.8125 36.53125 
Q 39.546875 41.84375 41.421875 45.53125 
Q 43.3125 49.21875 43.3125 52.78125 
Q 43.3125 58.59375 39.234375 62.25 
Q 35.15625 65.921875 28.609375 65.921875 
Q 23.96875 65.921875 18.8125 64.3125 
Q 13.671875 62.703125 7.8125 59.421875 
L 7.8125 69.390625 
Q 13.765625 71.78125 18.9375 73 
Q 24.125 74.21875 28.421875 74.21875 
Q 39.75 74.21875 46.484375 68.546875 
Q 53.21875 62.890625 53.21875 53.421875 
Q 53.21875 48.921875 51.53125 44.890625 
Q 49.859375 40.875 45.40625 35.40625 
Q 44.1875 33.984375 37.640625 27.21875 
Q 31.109375 20.453125 19.1875 8.296875 
" id="DejaVuSans-32"/>
      </defs>
      <g transform="translate(184.229258 449.081065)rotate(-30)scale(0.1 -0.1)">
       <use xlink:href="#DejaVuSans-4d"/>
       <use x="86.279297" xlink:href="#DejaVuSans-6f"/>
       <use x="147.460938" xlink:href="#DejaVuSans-6e"/>
       <use x="210.839844" xlink:href="#DejaVuSans-20"/>
       <use x="242.626953" xlink:href="#DejaVuSans-32"/>
       <use x="306.25" xlink:href="#DejaVuSans-30"/>
       <use x="369.873047" xlink:href="#DejaVuSans-3a"/>
       <use x="403.564453" xlink:href="#DejaVuSans-30"/>
       <use x="467.1875" xlink:href="#DejaVuSans-30"/>
      </g>
     </g>
    </g>
    <g id="xtick_6">
     <g id="line2d_6">
      <g>
       <use style="stroke:#000000;stroke-width:0.8;" x="251.180402" xlink:href="#mcf0da84ef7" y="408.96"/>
      </g>
     </g>
     <g id="text_6">
      <!-- Tue 01:00 -->
      <defs>
       <path d="M -0.296875 72.90625 
L 61.375 72.90625 
L 61.375 64.59375 
L 35.5 64.59375 
L 35.5 0 
L 25.59375 0 
L 25.59375 64.59375 
L -0.296875 64.59375 
z
" id="DejaVuSans-54"/>
       <path d="M 8.5 21.578125 
L 8.5 54.6875 
L 17.484375 54.6875 
L 17.484375 21.921875 
Q 17.484375 14.15625 20.5 10.265625 
Q 23.53125 6.390625 29.59375 6.390625 
Q 36.859375 6.390625 41.078125 11.03125 
Q 45.3125 15.671875 45.3125 23.6875 
L 45.3125 54.6875 
L 54.296875 54.6875 
L 54.296875 0 
L 45.3125 0 
L 45.3125 8.40625 
Q 42.046875 3.421875 37.71875 1 
Q 33.40625 -1.421875 27.6875 -1.421875 
Q 18.265625 -1.421875 13.375 4.4375 
Q 8.5 10.296875 8.5 21.578125 
M 31.109375 56 
z
" id="DejaVuSans-75"/>
       <path d="M 56.203125 29.59375 
L 56.203125 25.203125 
L 14.890625 25.203125 
Q 15.484375 15.921875 20.484375 11.0625 
Q 25.484375 6.203125 34.421875 6.203125 
Q 39.59375 6.203125 44.453125 7.46875 
Q 49.3125 8.734375 54.109375 11.28125 
L 54.109375 2.78125 
Q 49.265625 0.734375 44.1875 -0.34375 
Q 39.109375 -1.421875 33.890625 -1.421875 
Q 20.796875 -1.421875 13.15625 6.1875 
Q 5.515625 13.8125 5.515625 26.8125 
Q 5.515625 40.234375 12.765625 48.109375 
Q 20.015625 56 32.328125 56 
Q 43.359375 56 49.78125 48.890625 
Q 56.203125 41.796875 56.203125 29.59375 
M 47.21875 32.234375 
Q 47.125 39.59375 43.09375 43.984375 
Q 39.0625 48.390625 32.421875 48.390625 
Q 24.90625 48.390625 20.390625 44.140625 
Q 15.875 39.890625 15.1875 32.171875 
z
" id="DejaVuSans-65"/>
      </defs>
      <g transform="translate(206.34403 447.826377)rotate(-30)scale(0.1 -0.1)">
       <use xlink:href="#DejaVuSans-54"/>
       <use x="60.849609" xlink:href="#DejaVuSans-75"/>
       <use x="124.228516" xlink:href="#DejaVuSans-65"/>
       <use x="185.751953" xlink:href="#DejaVuSans-20"/>
       <use x="217.539062" xlink:href="#DejaVuSans-30"/>
       <use x="281.162109" xlink:href="#DejaVuSans-31"/>
       <use x="344.785156" xlink:href="#DejaVuSans-3a"/>
       <use x="378.476562" xlink:href="#DejaVuSans-30"/>
       <use x="442.099609" xlink:href="#DejaVuSans-30"/>
      </g>
     </g>
    </g>
    <g id="xtick_7">
     <g id="line2d_7">
      <g>
       <use style="stroke:#000000;stroke-width:0.8;" x="271.121992" xlink:href="#mcf0da84ef7" y="408.96"/>
      </g>
     </g>
     <g id="text_7">
      <!-- Tue 06:00 -->
      <defs>
       <path d="M 33.015625 40.375 
Q 26.375 40.375 22.484375 35.828125 
Q 18.609375 31.296875 18.609375 23.390625 
Q 18.609375 15.53125 22.484375 10.953125 
Q 26.375 6.390625 33.015625 6.390625 
Q 39.65625 6.390625 43.53125 10.953125 
Q 47.40625 15.53125 47.40625 23.390625 
Q 47.40625 31.296875 43.53125 35.828125 
Q 39.65625 40.375 33.015625 40.375 
M 52.59375 71.296875 
L 52.59375 62.3125 
Q 48.875 64.0625 45.09375 64.984375 
Q 41.3125 65.921875 37.59375 65.921875 
Q 27.828125 65.921875 22.671875 59.328125 
Q 17.53125 52.734375 16.796875 39.40625 
Q 19.671875 43.65625 24.015625 45.921875 
Q 28.375 48.1875 33.59375 48.1875 
Q 44.578125 48.1875 50.953125 41.515625 
Q 57.328125 34.859375 57.328125 23.390625 
Q 57.328125 12.15625 50.6875 5.359375 
Q 44.046875 -1.421875 33.015625 -1.421875 
Q 20.359375 -1.421875 13.671875 8.265625 
Q 6.984375 17.96875 6.984375 36.375 
Q 6.984375 53.65625 15.1875 63.9375 
Q 23.390625 74.21875 37.203125 74.21875 
Q 40.921875 74.21875 44.703125 73.484375 
Q 48.484375 72.75 52.59375 71.296875 
" id="DejaVuSans-36"/>
      </defs>
      <g transform="translate(226.28562 447.826377)rotate(-30)scale(0.1 -0.1)">
       <use xlink:href="#DejaVuSans-54"/>
       <use x="60.849609" xlink:href="#DejaVuSans-75"/>
       <use x="124.228516" xlink:href="#DejaVuSans-65"/>
       <use x="185.751953" xlink:href="#DejaVuSans-20"/>
       <use x="217.539062" xlink:href="#DejaVuSans-30"/>
       <use x="281.162109" xlink:href="#DejaVuSans-36"/>
       <use x="344.785156" xlink:href="#DejaVuSans-3a"/>
       <use x="378.476562" xlink:href="#DejaVuSans-30"/>
       <use x="442.099609" xlink:href="#DejaVuSans-30"/>
      </g>
     </g>
    </g>
    <g id="xtick_8">
     <g id="line2d_8">
      <g>
       <use style="stroke:#000000;stroke-width:0.8;" x="291.063581" xlink:href="#mcf0da84ef7" y="408.96"/>
      </g>
     </g>
     <g id="text_8">
      <!-- Tue 11:00 -->
      <g transform="translate(246.227209 447.826377)rotate(-30)scale(0.1 -0.1)">
       <use xlink:href="#DejaVuSans-54"/>
       <use x="60.849609" xlink:href="#DejaVuSans-75"/>
       <use x="124.228516" xlink:href="#DejaVuSans-65"/>
       <use x="185.751953" xlink:href="#DejaVuSans-20"/>
       <use x="217.539062" xlink:href="#DejaVuSans-31"/>
       <use x="281.162109" xlink:href="#DejaVuSans-31"/>
       <use x="344.785156" xlink:href="#DejaVuSans-3a"/>
       <use x="378.476562" xlink:href="#DejaVuSans-30"/>
       <use x="442.099609" xlink:href="#DejaVuSans-30"/>
      </g>
     </g>
    </g>
    <g id="xtick_9">
     <g id="line2d_9">
      <g>
       <use style="stroke:#000000;stroke-width:0.8;" x="311.005171" xlink:href="#mcf0da84ef7" y="408.96"/>
      </g>
     </g>
     <g id="text_9">
      <!-- Tue 16:00 -->
      <g transform="translate(266.168799 447.826377)rotate(-30)scale(0.1 -0.1)">
       <use xlink:href="#DejaVuSans-54"/>
       <use x="60.849609" xlink:href="#DejaVuSans-75"/>
       <use x="124.228516" xlink:href="#DejaVuSans-65"/>
       <use x="185.751953" xlink:href="#DejaVuSans-20"/>
       <use x="217.539062" xlink:href="#DejaVuSans-31"/>
       <use x="281.162109" xlink:href="#DejaVuSans-36"/>
       <use x="344.785156" xlink:href="#DejaVuSans-3a"/>
       <use x="378.476562" xlink:href="#DejaVuSans-30"/>
       <use x="442.099609" xlink:href="#DejaVuSans-30"/>
      </g>
     </g>
    </g>
    <g id="xtick_10">
     <g id="line2d_10">
      <g>
       <use style="stroke:#000000;stroke-width:0.8;" x="330.94676" xlink:href="#mcf0da84ef7" y="408.96"/>
      </g>
     </g>
     <g id="text_10">
      <!-- Tue 21:00 -->
      <g transform="translate(286.110388 447.826377)rotate(-30)scale(0.1 -0.1)">
       <use xlink:href="#DejaVuSans-54"/>
       <use x="60.849609" xlink:href="#DejaVuSans-75"/>
       <use x="124.228516" xlink:href="#DejaVuSans-65"/>
       <use x="185.751953" xlink:href="#DejaVuSans-20"/>
       <use x="217.539062" xlink:href="#DejaVuSans-32"/>
       <use x="281.162109" xlink:href="#DejaVuSans-31"/>
       <use x="344.785156" xlink:href="#DejaVuSans-3a"/>
       <use x="378.476562" xlink:href="#DejaVuSans-30"/>
       <use x="442.099609" xlink:href="#DejaVuSans-30"/>
      </g>
     </g>
    </g>
    <g id="xtick_11">
     <g id="line2d_11">
      <g>
       <use style="stroke:#000000;stroke-width:0.8;" x="350.88835" xlink:href="#mcf0da84ef7" y="408.96"/>
      </g>
     </g>
     <g id="text_11">
      <!-- Wed 02:00 -->
      <defs>
       <path d="M 3.328125 72.90625 
L 13.28125 72.90625 
L 28.609375 11.28125 
L 43.890625 72.90625 
L 54.984375 72.90625 
L 70.3125 11.28125 
L 85.59375 72.90625 
L 95.609375 72.90625 
L 77.296875 0 
L 64.890625 0 
L 49.515625 63.28125 
L 33.984375 0 
L 21.578125 0 
z
" id="DejaVuSans-57"/>
       <path d="M 45.40625 46.390625 
L 45.40625 75.984375 
L 54.390625 75.984375 
L 54.390625 0 
L 45.40625 0 
L 45.40625 8.203125 
Q 42.578125 3.328125 38.25 0.953125 
Q 33.9375 -1.421875 27.875 -1.421875 
Q 17.96875 -1.421875 11.734375 6.484375 
Q 5.515625 14.40625 5.515625 27.296875 
Q 5.515625 40.1875 11.734375 48.09375 
Q 17.96875 56 27.875 56 
Q 33.9375 56 38.25 53.625 
Q 42.578125 51.265625 45.40625 46.390625 
M 14.796875 27.296875 
Q 14.796875 17.390625 18.875 11.75 
Q 22.953125 6.109375 30.078125 6.109375 
Q 37.203125 6.109375 41.296875 11.75 
Q 45.40625 17.390625 45.40625 27.296875 
Q 45.40625 37.203125 41.296875 42.84375 
Q 37.203125 48.484375 30.078125 48.484375 
Q 22.953125 48.484375 18.875 42.84375 
Q 14.796875 37.203125 14.796875 27.296875 
" id="DejaVuSans-64"/>
      </defs>
      <g transform="translate(302.755669 449.729502)rotate(-30)scale(0.1 -0.1)">
       <use xlink:href="#DejaVuSans-57"/>
       <use x="98.798828" xlink:href="#DejaVuSans-65"/>
       <use x="160.322266" xlink:href="#DejaVuSans-64"/>
       <use x="223.798828" xlink:href="#DejaVuSans-20"/>
       <use x="255.585938" xlink:href="#DejaVuSans-30"/>
       <use x="319.208984" xlink:href="#DejaVuSans-32"/>
       <use x="382.832031" xlink:href="#DejaVuSans-3a"/>
       <use x="416.523438" xlink:href="#DejaVuSans-30"/>
       <use x="480.146484" xlink:href="#DejaVuSans-30"/>
      </g>
     </g>
    </g>
    <g id="xtick_12">
     <g id="line2d_12">
      <g>
       <use style="stroke:#000000;stroke-width:0.8;" x="370.82994" xlink:href="#mcf0da84ef7" y="408.96"/>
      </g>
     </g>
     <g id="text_12">
      <!-- Wed 07:00 -->
      <defs>
       <path d="M 8.203125 72.90625 
L 55.078125 72.90625 
L 55.078125 68.703125 
L 28.609375 0 
L 18.3125 0 
L 43.21875 64.59375 
L 8.203125 64.59375 
z
" id="DejaVuSans-37"/>
      </defs>
      <g transform="translate(322.697258 449.729502)rotate(-30)scale(0.1 -0.1)">
       <use xlink:href="#DejaVuSans-57"/>
       <use x="98.798828" xlink:href="#DejaVuSans-65"/>
       <use x="160.322266" xlink:href="#DejaVuSans-64"/>
       <use x="223.798828" xlink:href="#DejaVuSans-20"/>
       <use x="255.585938" xlink:href="#DejaVuSans-30"/>
       <use x="319.208984" xlink:href="#DejaVuSans-37"/>
       <use x="382.832031" xlink:href="#DejaVuSans-3a"/>
       <use x="416.523438" xlink:href="#DejaVuSans-30"/>
       <use x="480.146484" xlink:href="#DejaVuSans-30"/>
      </g>
     </g>
    </g>
    <g id="xtick_13">
     <g id="line2d_13">
      <g>
       <use style="stroke:#000000;stroke-width:0.8;" x="390.771529" xlink:href="#mcf0da84ef7" y="408.96"/>
      </g>
     </g>
     <g id="text_13">
      <!-- Wed 12:00 -->
      <g transform="translate(342.638848 449.729502)rotate(-30)scale(0.1 -0.1)">
       <use xlink:href="#DejaVuSans-57"/>
       <use x="98.798828" xlink:href="#DejaVuSans-65"/>
       <use x="160.322266" xlink:href="#DejaVuSans-64"/>
       <use x="223.798828" xlink:href="#DejaVuSans-20"/>
       <use x="255.585938" xlink:href="#DejaVuSans-31"/>
       <use x="319.208984" xlink:href="#DejaVuSans-32"/>
       <use x="382.832031" xlink:href="#DejaVuSans-3a"/>
       <use x="416.523438" xlink:href="#DejaVuSans-30"/>
       <use x="480.146484" xlink:href="#DejaVuSans-30"/>
      </g>
     </g>
    </g>
    <g id="xtick_14">
     <g id="line2d_14">
      <g>
       <use style="stroke:#000000;stroke-width:0.8;" x="410.713119" xlink:href="#mcf0da84ef7" y="408.96"/>
      </g>
     </g>
     <g id="text_14">
      <!-- Wed 17:00 -->
      <g transform="translate(362.580437 449.729502)rotate(-30)scale(0.1 -0.1)">
       <use xlink:href="#DejaVuSans-57"/>
       <use x="98.798828" xlink:href="#DejaVuSans-65"/>
       <use x="160.322266" xlink:href="#DejaVuSans-64"/>
       <use x="223.798828" xlink:href="#DejaVuSans-20"/>
       <use x="255.585938" xlink:href="#DejaVuSans-31"/>
       <use x="319.208984" xlink:href="#DejaVuSans-37"/>
       <use x="382.832031" xlink:href="#DejaVuSans-3a"/>
       <use x="416.523438" xlink:href="#DejaVuSans-30"/>
       <use x="480.146484" xlink:href="#DejaVuSans-30"/>
      </g>
     </g>
    </g>
    <g id="xtick_15">
     <g id="line2d_15">
      <g>
       <use style="stroke:#000000;stroke-width:0.8;" x="430.654708" xlink:href="#mcf0da84ef7" y="408.96"/>
      </g>
     </g>
     <g id="text_15">
      <!-- Wed 22:00 -->
      <g transform="translate(382.522027 449.729502)rotate(-30)scale(0.1 -0.1)">
       <use xlink:href="#DejaVuSans-57"/>
       <use x="98.798828" xlink:href="#DejaVuSans-65"/>
       <use x="160.322266" xlink:href="#DejaVuSans-64"/>
       <use x="223.798828" xlink:href="#DejaVuSans-20"/>
       <use x="255.585938" xlink:href="#DejaVuSans-32"/>
       <use x="319.208984" xlink:href="#DejaVuSans-32"/>
       <use x="382.832031" xlink:href="#DejaVuSans-3a"/>
       <use x="416.523438" xlink:href="#DejaVuSans-30"/>
       <use x="480.146484" xlink:href="#DejaVuSans-30"/>
      </g>
     </g>
    </g>
    <g id="xtick_16">
     <g id="line2d_16">
      <g>
       <use style="stroke:#000000;stroke-width:0.8;" x="450.596298" xlink:href="#mcf0da84ef7" y="408.96"/>
      </g>
     </g>
     <g id="text_16">
      <!-- Thu 03:00 -->
      <defs>
       <path d="M 54.890625 33.015625 
L 54.890625 0 
L 45.90625 0 
L 45.90625 32.71875 
Q 45.90625 40.484375 42.875 44.328125 
Q 39.84375 48.1875 33.796875 48.1875 
Q 26.515625 48.1875 22.3125 43.546875 
Q 18.109375 38.921875 18.109375 30.90625 
L 18.109375 0 
L 9.078125 0 
L 9.078125 75.984375 
L 18.109375 75.984375 
L 18.109375 46.1875 
Q 21.34375 51.125 25.703125 53.5625 
Q 30.078125 56 35.796875 56 
Q 45.21875 56 50.046875 50.171875 
Q 54.890625 44.34375 54.890625 33.015625 
" id="DejaVuSans-68"/>
       <path d="M 40.578125 39.3125 
Q 47.65625 37.796875 51.625 33 
Q 55.609375 28.21875 55.609375 21.1875 
Q 55.609375 10.40625 48.1875 4.484375 
Q 40.765625 -1.421875 27.09375 -1.421875 
Q 22.515625 -1.421875 17.65625 -0.515625 
Q 12.796875 0.390625 7.625 2.203125 
L 7.625 11.71875 
Q 11.71875 9.328125 16.59375 8.109375 
Q 21.484375 6.890625 26.8125 6.890625 
Q 36.078125 6.890625 40.9375 10.546875 
Q 45.796875 14.203125 45.796875 21.1875 
Q 45.796875 27.640625 41.28125 31.265625 
Q 36.765625 34.90625 28.71875 34.90625 
L 20.21875 34.90625 
L 20.21875 43.015625 
L 29.109375 43.015625 
Q 36.375 43.015625 40.234375 45.921875 
Q 44.09375 48.828125 44.09375 54.296875 
Q 44.09375 59.90625 40.109375 62.90625 
Q 36.140625 65.921875 28.71875 65.921875 
Q 24.65625 65.921875 20.015625 65.03125 
Q 15.375 64.15625 9.8125 62.3125 
L 9.8125 71.09375 
Q 15.4375 72.65625 20.34375 73.4375 
Q 25.25 74.21875 29.59375 74.21875 
Q 40.828125 74.21875 47.359375 69.109375 
Q 53.90625 64.015625 53.90625 55.328125 
Q 53.90625 49.265625 50.4375 45.09375 
Q 46.96875 40.921875 40.578125 39.3125 
" id="DejaVuSans-33"/>
      </defs>
      <g transform="translate(405.579955 447.930284)rotate(-30)scale(0.1 -0.1)">
       <use xlink:href="#DejaVuSans-54"/>
       <use x="61.083984" xlink:href="#DejaVuSans-68"/>
       <use x="124.462891" xlink:href="#DejaVuSans-75"/>
       <use x="187.841797" xlink:href="#DejaVuSans-20"/>
       <use x="219.628906" xlink:href="#DejaVuSans-30"/>
       <use x="283.251953" xlink:href="#DejaVuSans-33"/>
       <use x="346.875" xlink:href="#DejaVuSans-3a"/>
       <use x="380.566406" xlink:href="#DejaVuSans-30"/>
       <use x="444.189453" xlink:href="#DejaVuSans-30"/>
      </g>
     </g>
    </g>
    <g id="xtick_17">
     <g id="line2d_17">
      <g>
       <use style="stroke:#000000;stroke-width:0.8;" x="470.537887" xlink:href="#mcf0da84ef7" y="408.96"/>
      </g>
     </g>
     <g id="text_17">
      <!-- Thu 08:00 -->
      <defs>
       <path d="M 31.78125 34.625 
Q 24.75 34.625 20.71875 30.859375 
Q 16.703125 27.09375 16.703125 20.515625 
Q 16.703125 13.921875 20.71875 10.15625 
Q 24.75 6.390625 31.78125 6.390625 
Q 38.8125 6.390625 42.859375 10.171875 
Q 46.921875 13.96875 46.921875 20.515625 
Q 46.921875 27.09375 42.890625 30.859375 
Q 38.875 34.625 31.78125 34.625 
M 21.921875 38.8125 
Q 15.578125 40.375 12.03125 44.71875 
Q 8.5 49.078125 8.5 55.328125 
Q 8.5 64.0625 14.71875 69.140625 
Q 20.953125 74.21875 31.78125 74.21875 
Q 42.671875 74.21875 48.875 69.140625 
Q 55.078125 64.0625 55.078125 55.328125 
Q 55.078125 49.078125 51.53125 44.71875 
Q 48 40.375 41.703125 38.8125 
Q 48.828125 37.15625 52.796875 32.3125 
Q 56.78125 27.484375 56.78125 20.515625 
Q 56.78125 9.90625 50.3125 4.234375 
Q 43.84375 -1.421875 31.78125 -1.421875 
Q 19.734375 -1.421875 13.25 4.234375 
Q 6.78125 9.90625 6.78125 20.515625 
Q 6.78125 27.484375 10.78125 32.3125 
Q 14.796875 37.15625 21.921875 38.8125 
M 18.3125 54.390625 
Q 18.3125 48.734375 21.84375 45.5625 
Q 25.390625 42.390625 31.78125 42.390625 
Q 38.140625 42.390625 41.71875 45.5625 
Q 45.3125 48.734375 45.3125 54.390625 
Q 45.3125 60.0625 41.71875 63.234375 
Q 38.140625 66.40625 31.78125 66.40625 
Q 25.390625 66.40625 21.84375 63.234375 
Q 18.3125 60.0625 18.3125 54.390625 
" id="DejaVuSans-38"/>
      </defs>
      <g transform="translate(425.521544 447.930284)rotate(-30)scale(0.1 -0.1)">
       <use xlink:href="#DejaVuSans-54"/>
       <use x="61.083984" xlink:href="#DejaVuSans-68"/>
       <use x="124.462891" xlink:href="#DejaVuSans-75"/>
       <use x="187.841797" xlink:href="#DejaVuSans-20"/>
       <use x="219.628906" xlink:href="#DejaVuSans-30"/>
       <use x="283.251953" xlink:href="#DejaVuSans-38"/>
       <use x="346.875" xlink:href="#DejaVuSans-3a"/>
       <use x="380.566406" xlink:href="#DejaVuSans-30"/>
       <use x="444.189453" xlink:href="#DejaVuSans-30"/>
      </g>
     </g>
    </g>
    <g id="xtick_18">
     <g id="line2d_18">
      <g>
       <use style="stroke:#000000;stroke-width:0.8;" x="490.479477" xlink:href="#mcf0da84ef7" y="408.96"/>
      </g>
     </g>
     <g id="text_18">
      <!-- Thu 13:00 -->
      <g transform="translate(445.463134 447.930284)rotate(-30)scale(0.1 -0.1)">
       <use xlink:href="#DejaVuSans-54"/>
       <use x="61.083984" xlink:href="#DejaVuSans-68"/>
       <use x="124.462891" xlink:href="#DejaVuSans-75"/>
       <use x="187.841797" xlink:href="#DejaVuSans-20"/>
       <use x="219.628906" xlink:href="#DejaVuSans-31"/>
       <use x="283.251953" xlink:href="#DejaVuSans-33"/>
       <use x="346.875" xlink:href="#DejaVuSans-3a"/>
       <use x="380.566406" xlink:href="#DejaVuSans-30"/>
       <use x="444.189453" xlink:href="#DejaVuSans-30"/>
      </g>
     </g>
    </g>
    <g id="xtick_19">
     <g id="line2d_19">
      <g>
       <use style="stroke:#000000;stroke-width:0.8;" x="510.421066" xlink:href="#mcf0da84ef7" y="408.96"/>
      </g>
     </g>
     <g id="text_19">
      <!-- Thu 18:00 -->
      <g transform="translate(465.404723 447.930284)rotate(-30)scale(0.1 -0.1)">
       <use xlink:href="#DejaVuSans-54"/>
       <use x="61.083984" xlink:href="#DejaVuSans-68"/>
       <use x="124.462891" xlink:href="#DejaVuSans-75"/>
       <use x="187.841797" xlink:href="#DejaVuSans-20"/>
       <use x="219.628906" xlink:href="#DejaVuSans-31"/>
       <use x="283.251953" xlink:href="#DejaVuSans-38"/>
       <use x="346.875" xlink:href="#DejaVuSans-3a"/>
       <use x="380.566406" xlink:href="#DejaVuSans-30"/>
       <use x="444.189453" xlink:href="#DejaVuSans-30"/>
      </g>
     </g>
    </g>
    <g id="xtick_20">
     <g id="line2d_20">
      <g>
       <use style="stroke:#000000;stroke-width:0.8;" x="530.362656" xlink:href="#mcf0da84ef7" y="408.96"/>
      </g>
     </g>
     <g id="text_20">
      <!-- Thu 23:00 -->
      <g transform="translate(485.346313 447.930284)rotate(-30)scale(0.1 -0.1)">
       <use xlink:href="#DejaVuSans-54"/>
       <use x="61.083984" xlink:href="#DejaVuSans-68"/>
       <use x="124.462891" xlink:href="#DejaVuSans-75"/>
       <use x="187.841797" xlink:href="#DejaVuSans-20"/>
       <use x="219.628906" xlink:href="#DejaVuSans-32"/>
       <use x="283.251953" xlink:href="#DejaVuSans-33"/>
       <use x="346.875" xlink:href="#DejaVuSans-3a"/>
       <use x="380.566406" xlink:href="#DejaVuSans-30"/>
       <use x="444.189453" xlink:href="#DejaVuSans-30"/>
      </g>
     </g>
    </g>
    <g id="xtick_21">
     <g id="line2d_21">
      <g>
       <use style="stroke:#000000;stroke-width:0.8;" x="550.304246" xlink:href="#mcf0da84ef7" y="408.96"/>
      </g>
     </g>
     <g id="text_21">
      <!-- Fri 04:00 -->
      <defs>
       <path d="M 9.8125 72.90625 
L 51.703125 72.90625 
L 51.703125 64.59375 
L 19.671875 64.59375 
L 19.671875 43.109375 
L 48.578125 43.109375 
L 48.578125 34.8125 
L 19.671875 34.8125 
L 19.671875 0 
L 9.8125 0 
z
" id="DejaVuSans-46"/>
       <path d="M 41.109375 46.296875 
Q 39.59375 47.171875 37.8125 47.578125 
Q 36.03125 48 33.890625 48 
Q 26.265625 48 22.1875 43.046875 
Q 18.109375 38.09375 18.109375 28.8125 
L 18.109375 0 
L 9.078125 0 
L 9.078125 54.6875 
L 18.109375 54.6875 
L 18.109375 46.1875 
Q 20.953125 51.171875 25.484375 53.578125 
Q 30.03125 56 36.53125 56 
Q 37.453125 56 38.578125 55.875 
Q 39.703125 55.765625 41.0625 55.515625 
z
" id="DejaVuSans-72"/>
       <path d="M 9.421875 54.6875 
L 18.40625 54.6875 
L 18.40625 0 
L 9.421875 0 
z
M 9.421875 75.984375 
L 18.40625 75.984375 
L 18.40625 64.59375 
L 9.421875 64.59375 
z
" id="DejaVuSans-69"/>
       <path d="M 37.796875 64.3125 
L 12.890625 25.390625 
L 37.796875 25.390625 
z
M 35.203125 72.90625 
L 47.609375 72.90625 
L 47.609375 25.390625 
L 58.015625 25.390625 
L 58.015625 17.1875 
L 47.609375 17.1875 
L 47.609375 0 
L 37.796875 0 
L 37.796875 17.1875 
L 4.890625 17.1875 
L 4.890625 26.703125 
z
" id="DejaVuSans-34"/>
      </defs>
      <g transform="translate(510.616665 444.853721)rotate(-30)scale(0.1 -0.1)">
       <use xlink:href="#DejaVuSans-46"/>
       <use x="57.410156" xlink:href="#DejaVuSans-72"/>
       <use x="98.523438" xlink:href="#DejaVuSans-69"/>
       <use x="126.306641" xlink:href="#DejaVuSans-20"/>
       <use x="158.09375" xlink:href="#DejaVuSans-30"/>
       <use x="221.716797" xlink:href="#DejaVuSans-34"/>
       <use x="285.339844" xlink:href="#DejaVuSans-3a"/>
       <use x="319.03125" xlink:href="#DejaVuSans-30"/>
       <use x="382.654297" xlink:href="#DejaVuSans-30"/>
      </g>
     </g>
    </g>
    <g id="xtick_22">
     <g id="line2d_22">
      <g>
       <use style="stroke:#000000;stroke-width:0.8;" x="570.245835" xlink:href="#mcf0da84ef7" y="408.96"/>
      </g>
     </g>
     <g id="text_22">
      <!-- Fri 09:00 -->
      <defs>
       <path d="M 10.984375 1.515625 
L 10.984375 10.5 
Q 14.703125 8.734375 18.5 7.8125 
Q 22.3125 6.890625 25.984375 6.890625 
Q 35.75 6.890625 40.890625 13.453125 
Q 46.046875 20.015625 46.78125 33.40625 
Q 43.953125 29.203125 39.59375 26.953125 
Q 35.25 24.703125 29.984375 24.703125 
Q 19.046875 24.703125 12.671875 31.3125 
Q 6.296875 37.9375 6.296875 49.421875 
Q 6.296875 60.640625 12.9375 67.421875 
Q 19.578125 74.21875 30.609375 74.21875 
Q 43.265625 74.21875 49.921875 64.515625 
Q 56.59375 54.828125 56.59375 36.375 
Q 56.59375 19.140625 48.40625 8.859375 
Q 40.234375 -1.421875 26.421875 -1.421875 
Q 22.703125 -1.421875 18.890625 -0.6875 
Q 15.09375 0.046875 10.984375 1.515625 
M 30.609375 32.421875 
Q 37.25 32.421875 41.125 36.953125 
Q 45.015625 41.5 45.015625 49.421875 
Q 45.015625 57.28125 41.125 61.84375 
Q 37.25 66.40625 30.609375 66.40625 
Q 23.96875 66.40625 20.09375 61.84375 
Q 16.21875 57.28125 16.21875 49.421875 
Q 16.21875 41.5 20.09375 36.953125 
Q 23.96875 32.421875 30.609375 32.421875 
" id="DejaVuSans-39"/>
      </defs>
      <g transform="translate(530.558255 444.853721)rotate(-30)scale(0.1 -0.1)">
       <use xlink:href="#DejaVuSans-46"/>
       <use x="57.410156" xlink:href="#DejaVuSans-72"/>
       <use x="98.523438" xlink:href="#DejaVuSans-69"/>
       <use x="126.306641" xlink:href="#DejaVuSans-20"/>
       <use x="158.09375" xlink:href="#DejaVuSans-30"/>
       <use x="221.716797" xlink:href="#DejaVuSans-39"/>
       <use x="285.339844" xlink:href="#DejaVuSans-3a"/>
       <use x="319.03125" xlink:href="#DejaVuSans-30"/>
       <use x="382.654297" xlink:href="#DejaVuSans-30"/>
      </g>
     </g>
    </g>
    <g id="xtick_23">
     <g id="line2d_23">
      <g>
       <use style="stroke:#000000;stroke-width:0.8;" x="590.187425" xlink:href="#mcf0da84ef7" y="408.96"/>
      </g>
     </g>
     <g id="text_23">
      <!-- Fri 14:00 -->
      <g transform="translate(550.499844 444.853721)rotate(-30)scale(0.1 -0.1)">
       <use xlink:href="#DejaVuSans-46"/>
       <use x="57.410156" xlink:href="#DejaVuSans-72"/>
       <use x="98.523438" xlink:href="#DejaVuSans-69"/>
       <use x="126.306641" xlink:href="#DejaVuSans-20"/>
       <use x="158.09375" xlink:href="#DejaVuSans-31"/>
       <use x="221.716797" xlink:href="#DejaVuSans-34"/>
       <use x="285.339844" xlink:href="#DejaVuSans-3a"/>
       <use x="319.03125" xlink:href="#DejaVuSans-30"/>
       <use x="382.654297" xlink:href="#DejaVuSans-30"/>
      </g>
     </g>
    </g>
    <g id="xtick_24">
     <g id="line2d_24">
      <g>
       <use style="stroke:#000000;stroke-width:0.8;" x="610.129014" xlink:href="#mcf0da84ef7" y="408.96"/>
      </g>
     </g>
     <g id="text_24">
      <!-- Fri 19:00 -->
      <g transform="translate(570.441434 444.853721)rotate(-30)scale(0.1 -0.1)">
       <use xlink:href="#DejaVuSans-46"/>
       <use x="57.410156" xlink:href="#DejaVuSans-72"/>
       <use x="98.523438" xlink:href="#DejaVuSans-69"/>
       <use x="126.306641" xlink:href="#DejaVuSans-20"/>
       <use x="158.09375" xlink:href="#DejaVuSans-31"/>
       <use x="221.716797" xlink:href="#DejaVuSans-39"/>
       <use x="285.339844" xlink:href="#DejaVuSans-3a"/>
       <use x="319.03125" xlink:href="#DejaVuSans-30"/>
       <use x="382.654297" xlink:href="#DejaVuSans-30"/>
      </g>
     </g>
    </g>
    <g id="xtick_25">
     <g id="line2d_25">
      <g>
       <use style="stroke:#000000;stroke-width:0.8;" x="630.070604" xlink:href="#mcf0da84ef7" y="408.96"/>
      </g>
     </g>
     <g id="text_25">
      <!-- Sat 00:00 -->
      <defs>
       <path d="M 53.515625 70.515625 
L 53.515625 60.890625 
Q 47.90625 63.578125 42.921875 64.890625 
Q 37.9375 66.21875 33.296875 66.21875 
Q 25.25 66.21875 20.875 63.09375 
Q 16.5 59.96875 16.5 54.203125 
Q 16.5 49.359375 19.40625 46.890625 
Q 22.3125 44.4375 30.421875 42.921875 
L 36.375 41.703125 
Q 47.40625 39.59375 52.65625 34.296875 
Q 57.90625 29 57.90625 20.125 
Q 57.90625 9.515625 50.796875 4.046875 
Q 43.703125 -1.421875 29.984375 -1.421875 
Q 24.8125 -1.421875 18.96875 -0.25 
Q 13.140625 0.921875 6.890625 3.21875 
L 6.890625 13.375 
Q 12.890625 10.015625 18.65625 8.296875 
Q 24.421875 6.59375 29.984375 6.59375 
Q 38.421875 6.59375 43.015625 9.90625 
Q 47.609375 13.234375 47.609375 19.390625 
Q 47.609375 24.75 44.3125 27.78125 
Q 41.015625 30.8125 33.5 32.328125 
L 27.484375 33.5 
Q 16.453125 35.6875 11.515625 40.375 
Q 6.59375 45.0625 6.59375 53.421875 
Q 6.59375 63.09375 13.40625 68.65625 
Q 20.21875 74.21875 32.171875 74.21875 
Q 37.3125 74.21875 42.625 73.28125 
Q 47.953125 72.359375 53.515625 70.515625 
" id="DejaVuSans-53"/>
       <path d="M 34.28125 27.484375 
Q 23.390625 27.484375 19.1875 25 
Q 14.984375 22.515625 14.984375 16.5 
Q 14.984375 11.71875 18.140625 8.90625 
Q 21.296875 6.109375 26.703125 6.109375 
Q 34.1875 6.109375 38.703125 11.40625 
Q 43.21875 16.703125 43.21875 25.484375 
L 43.21875 27.484375 
z
M 52.203125 31.203125 
L 52.203125 0 
L 43.21875 0 
L 43.21875 8.296875 
Q 40.140625 3.328125 35.546875 0.953125 
Q 30.953125 -1.421875 24.3125 -1.421875 
Q 15.921875 -1.421875 10.953125 3.296875 
Q 6 8.015625 6 15.921875 
Q 6 25.140625 12.171875 29.828125 
Q 18.359375 34.515625 30.609375 34.515625 
L 43.21875 34.515625 
L 43.21875 35.40625 
Q 43.21875 41.609375 39.140625 45 
Q 35.0625 48.390625 27.6875 48.390625 
Q 23 48.390625 18.546875 47.265625 
Q 14.109375 46.140625 10.015625 43.890625 
L 10.015625 52.203125 
Q 14.9375 54.109375 19.578125 55.046875 
Q 24.21875 56 28.609375 56 
Q 40.484375 56 46.34375 49.84375 
Q 52.203125 43.703125 52.203125 31.203125 
" id="DejaVuSans-61"/>
       <path d="M 18.3125 70.21875 
L 18.3125 54.6875 
L 36.8125 54.6875 
L 36.8125 47.703125 
L 18.3125 47.703125 
L 18.3125 18.015625 
Q 18.3125 11.328125 20.140625 9.421875 
Q 21.96875 7.515625 27.59375 7.515625 
L 36.8125 7.515625 
L 36.8125 0 
L 27.59375 0 
Q 17.1875 0 13.234375 3.875 
Q 9.28125 7.765625 9.28125 18.015625 
L 9.28125 47.703125 
L 2.6875 47.703125 
L 2.6875 54.6875 
L 9.28125 54.6875 
L 9.28125 70.21875 
z
" id="DejaVuSans-74"/>
      </defs>
      <g transform="translate(587.120543 446.737315)rotate(-30)scale(0.1 -0.1)">
       <use xlink:href="#DejaVuSans-53"/>
       <use x="63.476562" xlink:href="#DejaVuSans-61"/>
       <use x="124.755859" xlink:href="#DejaVuSans-74"/>
       <use x="163.964844" xlink:href="#DejaVuSans-20"/>
       <use x="195.751953" xlink:href="#DejaVuSans-30"/>
       <use x="259.375" xlink:href="#DejaVuSans-30"/>
       <use x="322.998047" xlink:href="#DejaVuSans-3a"/>
       <use x="356.689453" xlink:href="#DejaVuSans-30"/>
       <use x="420.3125" xlink:href="#DejaVuSans-30"/>
      </g>
     </g>
    </g>
    <g id="xtick_26">
     <g id="line2d_26">
      <g>
       <use style="stroke:#000000;stroke-width:0.8;" x="650.012193" xlink:href="#mcf0da84ef7" y="408.96"/>
      </g>
     </g>
     <g id="text_26">
      <!-- Sat 05:00 -->
      <g transform="translate(607.062133 446.737315)rotate(-30)scale(0.1 -0.1)">
       <use xlink:href="#DejaVuSans-53"/>
       <use x="63.476562" xlink:href="#DejaVuSans-61"/>
       <use x="124.755859" xlink:href="#DejaVuSans-74"/>
       <use x="163.964844" xlink:href="#DejaVuSans-20"/>
       <use x="195.751953" xlink:href="#DejaVuSans-30"/>
       <use x="259.375" xlink:href="#DejaVuSans-35"/>
       <use x="322.998047" xlink:href="#DejaVuSans-3a"/>
       <use x="356.689453" xlink:href="#DejaVuSans-30"/>
       <use x="420.3125" xlink:href="#DejaVuSans-30"/>
      </g>
     </g>
    </g>
    <g id="xtick_27">
     <g id="line2d_27">
      <g>
       <use style="stroke:#000000;stroke-width:0.8;" x="669.953783" xlink:href="#mcf0da84ef7" y="408.96"/>
      </g>
     </g>
     <g id="text_27">
      <!-- Sat 10:00 -->
      <g transform="translate(627.003722 446.737315)rotate(-30)scale(0.1 -0.1)">
       <use xlink:href="#DejaVuSans-53"/>
       <use x="63.476562" xlink:href="#DejaVuSans-61"/>
       <use x="124.755859" xlink:href="#DejaVuSans-74"/>
       <use x="163.964844" xlink:href="#DejaVuSans-20"/>
       <use x="195.751953" xlink:href="#DejaVuSans-31"/>
       <use x="259.375" xlink:href="#DejaVuSans-30"/>
       <use x="322.998047" xlink:href="#DejaVuSans-3a"/>
       <use x="356.689453" xlink:href="#DejaVuSans-30"/>
       <use x="420.3125" xlink:href="#DejaVuSans-30"/>
      </g>
     </g>
    </g>
    <g id="xtick_28">
     <g id="line2d_28">
      <g>
       <use style="stroke:#000000;stroke-width:0.8;" x="689.895372" xlink:href="#mcf0da84ef7" y="408.96"/>
      </g>
     </g>
     <g id="text_28">
      <!-- Sat 15:00 -->
      <g transform="translate(646.945312 446.737315)rotate(-30)scale(0.1 -0.1)">
       <use xlink:href="#DejaVuSans-53"/>
       <use x="63.476562" xlink:href="#DejaVuSans-61"/>
       <use x="124.755859" xlink:href="#DejaVuSans-74"/>
       <use x="163.964844" xlink:href="#DejaVuSans-20"/>
       <use x="195.751953" xlink:href="#DejaVuSans-31"/>
       <use x="259.375" xlink:href="#DejaVuSans-35"/>
       <use x="322.998047" xlink:href="#DejaVuSans-3a"/>
       <use x="356.689453" xlink:href="#DejaVuSans-30"/>
       <use x="420.3125" xlink:href="#DejaVuSans-30"/>
      </g>
     </g>
    </g>
    <g id="xtick_29">
     <g id="line2d_29">
      <g>
       <use style="stroke:#000000;stroke-width:0.8;" x="709.836962" xlink:href="#mcf0da84ef7" y="408.96"/>
      </g>
     </g>
     <g id="text_29">
      <!-- Sat 20:00 -->
      <g transform="translate(666.886901 446.737315)rotate(-30)scale(0.1 -0.1)">
       <use xlink:href="#DejaVuSans-53"/>
       <use x="63.476562" xlink:href="#DejaVuSans-61"/>
       <use x="124.755859" xlink:href="#DejaVuSans-74"/>
       <use x="163.964844" xlink:href="#DejaVuSans-20"/>
       <use x="195.751953" xlink:href="#DejaVuSans-32"/>
       <use x="259.375" xlink:href="#DejaVuSans-30"/>
       <use x="322.998047" xlink:href="#DejaVuSans-3a"/>
       <use x="356.689453" xlink:href="#DejaVuSans-30"/>
       <use x="420.3125" xlink:href="#DejaVuSans-30"/>
      </g>
     </g>
    </g>
    <g id="xtick_30">
     <g id="line2d_30">
      <g>
       <use style="stroke:#000000;stroke-width:0.8;" x="729.778551" xlink:href="#mcf0da84ef7" y="408.96"/>
      </g>
     </g>
     <g id="text_30">
      <!-- Sun 01:00 -->
      <g transform="translate(684.553821 448.050596)rotate(-30)scale(0.1 -0.1)">
       <use xlink:href="#DejaVuSans-53"/>
       <use x="63.476562" xlink:href="#DejaVuSans-75"/>
       <use x="126.855469" xlink:href="#DejaVuSans-6e"/>
       <use x="190.234375" xlink:href="#DejaVuSans-20"/>
       <use x="222.021484" xlink:href="#DejaVuSans-30"/>
       <use x="285.644531" xlink:href="#DejaVuSans-31"/>
       <use x="349.267578" xlink:href="#DejaVuSans-3a"/>
       <use x="382.958984" xlink:href="#DejaVuSans-30"/>
       <use x="446.582031" xlink:href="#DejaVuSans-30"/>
      </g>
     </g>
    </g>
    <g id="xtick_31">
     <g id="line2d_31">
      <g>
       <use style="stroke:#000000;stroke-width:0.8;" x="749.720141" xlink:href="#mcf0da84ef7" y="408.96"/>
      </g>
     </g>
     <g id="text_31">
      <!-- Sun 06:00 -->
      <g transform="translate(704.495411 448.050596)rotate(-30)scale(0.1 -0.1)">
       <use xlink:href="#DejaVuSans-53"/>
       <use x="63.476562" xlink:href="#DejaVuSans-75"/>
       <use x="126.855469" xlink:href="#DejaVuSans-6e"/>
       <use x="190.234375" xlink:href="#DejaVuSans-20"/>
       <use x="222.021484" xlink:href="#DejaVuSans-30"/>
       <use x="285.644531" xlink:href="#DejaVuSans-36"/>
       <use x="349.267578" xlink:href="#DejaVuSans-3a"/>
       <use x="382.958984" xlink:href="#DejaVuSans-30"/>
       <use x="446.582031" xlink:href="#DejaVuSans-30"/>
      </g>
     </g>
    </g>
    <g id="xtick_32">
     <g id="line2d_32">
      <g>
       <use style="stroke:#000000;stroke-width:0.8;" x="769.661731" xlink:href="#mcf0da84ef7" y="408.96"/>
      </g>
     </g>
     <g id="text_32">
      <!-- Sun 11:00 -->
      <g transform="translate(724.437 448.050596)rotate(-30)scale(0.1 -0.1)">
       <use xlink:href="#DejaVuSans-53"/>
       <use x="63.476562" xlink:href="#DejaVuSans-75"/>
       <use x="126.855469" xlink:href="#DejaVuSans-6e"/>
       <use x="190.234375" xlink:href="#DejaVuSans-20"/>
       <use x="222.021484" xlink:href="#DejaVuSans-31"/>
       <use x="285.644531" xlink:href="#DejaVuSans-31"/>
       <use x="349.267578" xlink:href="#DejaVuSans-3a"/>
       <use x="382.958984" xlink:href="#DejaVuSans-30"/>
       <use x="446.582031" xlink:href="#DejaVuSans-30"/>
      </g>
     </g>
    </g>
    <g id="xtick_33">
     <g id="line2d_33">
      <g>
       <use style="stroke:#000000;stroke-width:0.8;" x="789.60332" xlink:href="#mcf0da84ef7" y="408.96"/>
      </g>
     </g>
     <g id="text_33">
      <!-- Sun 16:00 -->
      <g transform="translate(744.37859 448.050596)rotate(-30)scale(0.1 -0.1)">
       <use xlink:href="#DejaVuSans-53"/>
       <use x="63.476562" xlink:href="#DejaVuSans-75"/>
       <use x="126.855469" xlink:href="#DejaVuSans-6e"/>
       <use x="190.234375" xlink:href="#DejaVuSans-20"/>
       <use x="222.021484" xlink:href="#DejaVuSans-31"/>
       <use x="285.644531" xlink:href="#DejaVuSans-36"/>
       <use x="349.267578" xlink:href="#DejaVuSans-3a"/>
       <use x="382.958984" xlink:href="#DejaVuSans-30"/>
       <use x="446.582031" xlink:href="#DejaVuSans-30"/>
      </g>
     </g>
    </g>
    <g id="xtick_34">
     <g id="line2d_34">
      <g>
       <use style="stroke:#000000;stroke-width:0.8;" x="809.54491" xlink:href="#mcf0da84ef7" y="408.96"/>
      </g>
     </g>
     <g id="text_34">
      <!-- Sun 21:00 -->
      <g transform="translate(764.320179 448.050596)rotate(-30)scale(0.1 -0.1)">
       <use xlink:href="#DejaVuSans-53"/>
       <use x="63.476562" xlink:href="#DejaVuSans-75"/>
       <use x="126.855469" xlink:href="#DejaVuSans-6e"/>
       <use x="190.234375" xlink:href="#DejaVuSans-20"/>
       <use x="222.021484" xlink:href="#DejaVuSans-32"/>
       <use x="285.644531" xlink:href="#DejaVuSans-31"/>
       <use x="349.267578" xlink:href="#DejaVuSans-3a"/>
       <use x="382.958984" xlink:href="#DejaVuSans-30"/>
       <use x="446.582031" xlink:href="#DejaVuSans-30"/>
      </g>
     </g>
    </g>
    <g id="text_35">
     <!-- Time - EST -->
     <defs>
      <path d="M 52 44.1875 
Q 55.375 50.25 60.0625 53.125 
Q 64.75 56 71.09375 56 
Q 79.640625 56 84.28125 50.015625 
Q 88.921875 44.046875 88.921875 33.015625 
L 88.921875 0 
L 79.890625 0 
L 79.890625 32.71875 
Q 79.890625 40.578125 77.09375 44.375 
Q 74.3125 48.1875 68.609375 48.1875 
Q 61.625 48.1875 57.5625 43.546875 
Q 53.515625 38.921875 53.515625 30.90625 
L 53.515625 0 
L 44.484375 0 
L 44.484375 32.71875 
Q 44.484375 40.625 41.703125 44.40625 
Q 38.921875 48.1875 33.109375 48.1875 
Q 26.21875 48.1875 22.15625 43.53125 
Q 18.109375 38.875 18.109375 30.90625 
L 18.109375 0 
L 9.078125 0 
L 9.078125 54.6875 
L 18.109375 54.6875 
L 18.109375 46.1875 
Q 21.1875 51.21875 25.484375 53.609375 
Q 29.78125 56 35.6875 56 
Q 41.65625 56 45.828125 52.96875 
Q 50 49.953125 52 44.1875 
" id="DejaVuSans-6d"/>
      <path d="M 4.890625 31.390625 
L 31.203125 31.390625 
L 31.203125 23.390625 
L 4.890625 23.390625 
z
" id="DejaVuSans-2d"/>
      <path d="M 9.8125 72.90625 
L 55.90625 72.90625 
L 55.90625 64.59375 
L 19.671875 64.59375 
L 19.671875 43.015625 
L 54.390625 43.015625 
L 54.390625 34.71875 
L 19.671875 34.71875 
L 19.671875 8.296875 
L 56.78125 8.296875 
L 56.78125 0 
L 9.8125 0 
z
" id="DejaVuSans-45"/>
     </defs>
     <g transform="translate(457.739969 463.129002)scale(0.1 -0.1)">
      <use xlink:href="#DejaVuSans-54"/>
      <use x="61.037109" xlink:href="#DejaVuSans-69"/>
      <use x="88.820312" xlink:href="#DejaVuSans-6d"/>
      <use x="186.232422" xlink:href="#DejaVuSans-65"/>
      <use x="247.755859" xlink:href="#DejaVuSans-20"/>
      <use x="279.542969" xlink:href="#DejaVuSans-2d"/>
      <use x="315.626953" xlink:href="#DejaVuSans-20"/>
      <use x="347.414062" xlink:href="#DejaVuSans-45"/>
      <use x="410.597656" xlink:href="#DejaVuSans-53"/>
      <use x="474.074219" xlink:href="#DejaVuSans-54"/>
     </g>
    </g>
   </g>
   <g id="matplotlib.axis_2">
    <g id="ytick_1">
     <g id="line2d_35">
      <path clip-path="url(#p5d1917d5d5)" d="M 118.17 358.665754 
L 850.824 358.665754 
" style="fill:none;stroke:#b0b0b0;stroke-linecap:square;stroke-width:0.8;"/>
     </g>
     <g id="line2d_36">
      <defs>
       <path d="M 0 0 
L -3.5 0 
" id="m26e3fcb251" style="stroke:#000000;stroke-width:0.8;"/>
      </defs>
      <g>
       <use style="stroke:#000000;stroke-width:0.8;" x="118.17" xlink:href="#m26e3fcb251" y="358.665754"/>
      </g>
     </g>
     <g id="text_36">
      <!-- 4 -->
      <g transform="translate(104.8075 362.464973)scale(0.1 -0.1)">
       <use xlink:href="#DejaVuSans-34"/>
      </g>
     </g>
    </g>
    <g id="ytick_2">
     <g id="line2d_37">
      <path clip-path="url(#p5d1917d5d5)" d="M 118.17 302.357329 
L 850.824 302.357329 
" style="fill:none;stroke:#b0b0b0;stroke-linecap:square;stroke-width:0.8;"/>
     </g>
     <g id="line2d_38">
      <g>
       <use style="stroke:#000000;stroke-width:0.8;" x="118.17" xlink:href="#m26e3fcb251" y="302.357329"/>
      </g>
     </g>
     <g id="text_37">
      <!-- 5 -->
      <g transform="translate(104.8075 306.156548)scale(0.1 -0.1)">
       <use xlink:href="#DejaVuSans-35"/>
      </g>
     </g>
    </g>
    <g id="ytick_3">
     <g id="line2d_39">
      <path clip-path="url(#p5d1917d5d5)" d="M 118.17 246.048905 
L 850.824 246.048905 
" style="fill:none;stroke:#b0b0b0;stroke-linecap:square;stroke-width:0.8;"/>
     </g>
     <g id="line2d_40">
      <g>
       <use style="stroke:#000000;stroke-width:0.8;" x="118.17" xlink:href="#m26e3fcb251" y="246.048905"/>
      </g>
     </g>
     <g id="text_38">
      <!-- 6 -->
      <g transform="translate(104.8075 249.848123)scale(0.1 -0.1)">
       <use xlink:href="#DejaVuSans-36"/>
      </g>
     </g>
    </g>
    <g id="ytick_4">
     <g id="line2d_41">
      <path clip-path="url(#p5d1917d5d5)" d="M 118.17 189.74048 
L 850.824 189.74048 
" style="fill:none;stroke:#b0b0b0;stroke-linecap:square;stroke-width:0.8;"/>
     </g>
     <g id="line2d_42">
      <g>
       <use style="stroke:#000000;stroke-width:0.8;" x="118.17" xlink:href="#m26e3fcb251" y="189.74048"/>
      </g>
     </g>
     <g id="text_39">
      <!-- 7 -->
      <g transform="translate(104.8075 193.539699)scale(0.1 -0.1)">
       <use xlink:href="#DejaVuSans-37"/>
      </g>
     </g>
    </g>
    <g id="ytick_5">
     <g id="line2d_43">
      <path clip-path="url(#p5d1917d5d5)" d="M 118.17 133.432055 
L 850.824 133.432055 
" style="fill:none;stroke:#b0b0b0;stroke-linecap:square;stroke-width:0.8;"/>
     </g>
     <g id="line2d_44">
      <g>
       <use style="stroke:#000000;stroke-width:0.8;" x="118.17" xlink:href="#m26e3fcb251" y="133.432055"/>
      </g>
     </g>
     <g id="text_40">
      <!-- 8 -->
      <g transform="translate(104.8075 137.231274)scale(0.1 -0.1)">
       <use xlink:href="#DejaVuSans-38"/>
      </g>
     </g>
    </g>
    <g id="ytick_6">
     <g id="line2d_45">
      <path clip-path="url(#p5d1917d5d5)" d="M 118.17 77.12363 
L 850.824 77.12363 
" style="fill:none;stroke:#b0b0b0;stroke-linecap:square;stroke-width:0.8;"/>
     </g>
     <g id="line2d_46">
      <g>
       <use style="stroke:#000000;stroke-width:0.8;" x="118.17" xlink:href="#m26e3fcb251" y="77.12363"/>
      </g>
     </g>
     <g id="text_41">
      <!-- 9 -->
      <g transform="translate(104.8075 80.922849)scale(0.1 -0.1)">
       <use xlink:href="#DejaVuSans-39"/>
      </g>
     </g>
    </g>
    <g id="text_42">
     <!-- % score over 100 -->
     <defs>
      <path d="M 72.703125 32.078125 
Q 68.453125 32.078125 66.03125 28.46875 
Q 63.625 24.859375 63.625 18.40625 
Q 63.625 12.0625 66.03125 8.421875 
Q 68.453125 4.78125 72.703125 4.78125 
Q 76.859375 4.78125 79.265625 8.421875 
Q 81.6875 12.0625 81.6875 18.40625 
Q 81.6875 24.8125 79.265625 28.4375 
Q 76.859375 32.078125 72.703125 32.078125 
M 72.703125 38.28125 
Q 80.421875 38.28125 84.953125 32.90625 
Q 89.5 27.546875 89.5 18.40625 
Q 89.5 9.28125 84.9375 3.921875 
Q 80.375 -1.421875 72.703125 -1.421875 
Q 64.890625 -1.421875 60.34375 3.921875 
Q 55.8125 9.28125 55.8125 18.40625 
Q 55.8125 27.59375 60.375 32.9375 
Q 64.9375 38.28125 72.703125 38.28125 
M 22.3125 68.015625 
Q 18.109375 68.015625 15.6875 64.375 
Q 13.28125 60.75 13.28125 54.390625 
Q 13.28125 47.953125 15.671875 44.328125 
Q 18.0625 40.71875 22.3125 40.71875 
Q 26.5625 40.71875 28.96875 44.328125 
Q 31.390625 47.953125 31.390625 54.390625 
Q 31.390625 60.6875 28.953125 64.34375 
Q 26.515625 68.015625 22.3125 68.015625 
M 66.40625 74.21875 
L 74.21875 74.21875 
L 28.609375 -1.421875 
L 20.796875 -1.421875 
z
M 22.3125 74.21875 
Q 30.03125 74.21875 34.609375 68.875 
Q 39.203125 63.53125 39.203125 54.390625 
Q 39.203125 45.171875 34.640625 39.84375 
Q 30.078125 34.515625 22.3125 34.515625 
Q 14.546875 34.515625 10.03125 39.859375 
Q 5.515625 45.21875 5.515625 54.390625 
Q 5.515625 63.484375 10.046875 68.84375 
Q 14.59375 74.21875 22.3125 74.21875 
" id="DejaVuSans-25"/>
      <path d="M 44.28125 53.078125 
L 44.28125 44.578125 
Q 40.484375 46.53125 36.375 47.5 
Q 32.28125 48.484375 27.875 48.484375 
Q 21.1875 48.484375 17.84375 46.4375 
Q 14.5 44.390625 14.5 40.28125 
Q 14.5 37.15625 16.890625 35.375 
Q 19.28125 33.59375 26.515625 31.984375 
L 29.59375 31.296875 
Q 39.15625 29.25 43.1875 25.515625 
Q 47.21875 21.78125 47.21875 15.09375 
Q 47.21875 7.46875 41.1875 3.015625 
Q 35.15625 -1.421875 24.609375 -1.421875 
Q 20.21875 -1.421875 15.453125 -0.5625 
Q 10.6875 0.296875 5.421875 2 
L 5.421875 11.28125 
Q 10.40625 8.6875 15.234375 7.390625 
Q 20.0625 6.109375 24.8125 6.109375 
Q 31.15625 6.109375 34.5625 8.28125 
Q 37.984375 10.453125 37.984375 14.40625 
Q 37.984375 18.0625 35.515625 20.015625 
Q 33.0625 21.96875 24.703125 23.78125 
L 21.578125 24.515625 
Q 13.234375 26.265625 9.515625 29.90625 
Q 5.8125 33.546875 5.8125 39.890625 
Q 5.8125 47.609375 11.28125 51.796875 
Q 16.75 56 26.8125 56 
Q 31.78125 56 36.171875 55.265625 
Q 40.578125 54.546875 44.28125 53.078125 
" id="DejaVuSans-73"/>
      <path d="M 48.78125 52.59375 
L 48.78125 44.1875 
Q 44.96875 46.296875 41.140625 47.34375 
Q 37.3125 48.390625 33.40625 48.390625 
Q 24.65625 48.390625 19.8125 42.84375 
Q 14.984375 37.3125 14.984375 27.296875 
Q 14.984375 17.28125 19.8125 11.734375 
Q 24.65625 6.203125 33.40625 6.203125 
Q 37.3125 6.203125 41.140625 7.25 
Q 44.96875 8.296875 48.78125 10.40625 
L 48.78125 2.09375 
Q 45.015625 0.34375 40.984375 -0.53125 
Q 36.96875 -1.421875 32.421875 -1.421875 
Q 20.0625 -1.421875 12.78125 6.34375 
Q 5.515625 14.109375 5.515625 27.296875 
Q 5.515625 40.671875 12.859375 48.328125 
Q 20.21875 56 33.015625 56 
Q 37.15625 56 41.109375 55.140625 
Q 45.0625 54.296875 48.78125 52.59375 
" id="DejaVuSans-63"/>
      <path d="M 2.984375 54.6875 
L 12.5 54.6875 
L 29.59375 8.796875 
L 46.6875 54.6875 
L 56.203125 54.6875 
L 35.6875 0 
L 23.484375 0 
z
" id="DejaVuSans-76"/>
     </defs>
     <g transform="translate(98.727812 278.90825)rotate(-90)scale(0.1 -0.1)">
      <use xlink:href="#DejaVuSans-25"/>
      <use x="95.019531" xlink:href="#DejaVuSans-20"/>
      <use x="126.806641" xlink:href="#DejaVuSans-73"/>
      <use x="178.90625" xlink:href="#DejaVuSans-63"/>
      <use x="233.886719" xlink:href="#DejaVuSans-6f"/>
      <use x="295.068359" xlink:href="#DejaVuSans-72"/>
      <use x="336.150391" xlink:href="#DejaVuSans-65"/>
      <use x="397.673828" xlink:href="#DejaVuSans-20"/>
      <use x="429.460938" xlink:href="#DejaVuSans-6f"/>
      <use x="490.642578" xlink:href="#DejaVuSans-76"/>
      <use x="549.822266" xlink:href="#DejaVuSans-65"/>
      <use x="611.345703" xlink:href="#DejaVuSans-72"/>
      <use x="652.458984" xlink:href="#DejaVuSans-20"/>
      <use x="684.246094" xlink:href="#DejaVuSans-31"/>
      <use x="747.869141" xlink:href="#DejaVuSans-30"/>
      <use x="811.492188" xlink:href="#DejaVuSans-30"/>
     </g>
    </g>
   </g>
   <g id="line2d_47">
    <path clip-path="url(#p5d1917d5d5)" d="M 151.472455 308.439947 
L 155.460772 306.649088 
L 159.44909 319.463722 
L 163.437408 325.304192 
L 167.425726 350.884598 
L 171.414044 360.748497 
L 175.402362 362.861982 
L 179.39068 338.799781 
L 183.378998 334.648899 
L 187.367316 319.562255 
L 191.355634 280.82429 
L 195.343952 236.871861 
L 199.332269 131.449957 
L 203.320587 126.857338 
L 211.297223 206.156913 
L 215.285541 215.73611 
L 219.273859 239.294208 
L 223.262177 253.089225 
L 227.250495 282.060025 
L 231.238813 319.873257 
L 235.227131 313.823008 
L 239.215449 326.786703 
L 243.203766 324.421463 
L 247.192084 337.652698 
L 251.180402 323.180089 
L 255.16872 350.943703 
L 259.157038 349.841058 
L 263.145356 360.661641 
L 267.133674 377.277415 
L 271.121992 384.794456 
L 275.11031 345.370112 
L 279.098628 337.165313 
L 283.086946 329.518086 
L 287.075263 296.085021 
L 291.063581 200.550984 
L 295.051899 170.113914 
L 299.040217 144.511409 
L 303.028535 195.425104 
L 307.016853 219.380881 
L 311.005171 235.592406 
L 314.993489 263.581538 
L 318.981807 286.665104 
L 322.970125 289.59483 
L 326.958443 303.407667 
L 330.94676 310.651401 
L 334.935078 327.498648 
L 338.923396 341.434886 
L 342.911714 326.269333 
L 346.900032 333.957175 
L 350.88835 349.846992 
L 354.876668 359.831361 
L 358.864986 377.857464 
L 362.853304 373.614127 
L 366.841622 374.961929 
L 370.82994 374.317512 
L 374.818257 368.735198 
L 378.806575 333.923621 
L 382.794893 255.023512 
L 386.783211 247.23771 
L 390.771529 176.937638 
L 394.759847 167.071268 
L 398.748165 174.126726 
L 402.736483 203.39487 
L 406.724801 231.206204 
L 410.713119 242.743821 
L 414.701437 275.835085 
L 418.689755 307.692886 
L 422.678072 299.608288 
L 426.66639 332.658695 
L 430.654708 319.865032 
L 434.643026 304.240846 
L 438.631344 317.857697 
L 442.619662 319.787215 
L 446.60798 333.976206 
L 450.596298 350.14007 
L 454.584616 376.812982 
L 458.572934 353.385469 
L 462.561252 390.700322 
L 470.537887 341.302194 
L 474.526205 319.728745 
L 478.514523 283.732513 
L 482.502841 213.509293 
L 486.491159 183.477063 
L 490.479477 136.085766 
L 494.467795 175.319034 
L 498.456113 189.665457 
L 502.444431 228.772061 
L 506.432749 238.138136 
L 510.421066 271.749062 
L 514.409384 295.891151 
L 518.397702 304.911914 
L 522.38602 316.786508 
L 526.374338 312.824239 
L 530.362656 328.009422 
L 534.350974 338.765422 
L 538.339292 323.869171 
L 542.32761 340.577728 
L 546.315928 362.923797 
L 550.304246 377.22511 
L 554.292563 393.159273 
L 558.280881 376.958549 
L 562.269199 379.540743 
L 566.257517 346.002506 
L 570.245835 302.845059 
L 574.234153 272.923641 
L 578.222471 191.41417 
L 582.210789 172.475137 
L 586.199107 126.54132 
L 590.187425 158.188769 
L 594.175743 202.671326 
L 598.16406 240.619181 
L 602.152378 237.027892 
L 606.140696 266.085315 
L 610.129014 296.584517 
L 614.117332 316.511056 
L 618.10565 294.844896 
L 622.093968 338.431672 
L 626.082286 327.142463 
L 630.070604 337.305713 
L 634.058922 326.019139 
L 638.04724 315.375257 
L 642.035557 340.348037 
L 646.023875 353.987093 
L 650.012193 390.264909 
L 654.000511 342.390578 
L 657.988829 350.601121 
L 661.977147 342.652149 
L 665.965465 298.377548 
L 669.953783 278.842524 
L 673.942101 211.314359 
L 677.930419 158.318601 
L 681.918737 107.169493 
L 685.907054 124.18965 
L 689.895372 188.688807 
L 693.88369 219.453602 
L 697.872008 227.630681 
L 701.860326 243.906044 
L 705.848644 252.159896 
L 709.836962 274.396556 
L 713.82528 314.921434 
L 717.813598 296.35031 
L 721.801916 303.904966 
L 725.790234 292.663749 
L 729.778551 311.035304 
L 733.766869 294.795412 
L 737.755187 287.731119 
L 741.743505 324.96548 
L 745.731823 351.159589 
L 749.720141 332.092489 
L 753.708459 320.174307 
L 757.696777 316.364731 
L 761.685095 316.248096 
L 765.673413 236.836423 
L 769.661731 191.863242 
L 773.650048 175.396454 
L 777.638366 77.144727 
L 781.626684 96.62852 
L 785.615002 133.110945 
L 789.60332 173.848555 
L 793.591638 218.188473 
L 797.579956 225.596649 
L 801.568274 255.196091 
L 805.556592 273.780227 
L 809.54491 264.372781 
L 813.533228 300.717581 
L 817.521545 279.104513 
L 817.521545 279.104513 
" style="fill:none;stroke:#1f77b4;stroke-linecap:square;stroke-width:1.5;"/>
   </g>
   <g id="patch_3">
    <path d="M 118.17 408.96 
L 118.17 61.344 
" style="fill:none;stroke:#000000;stroke-linecap:square;stroke-linejoin:miter;stroke-width:0.8;"/>
   </g>
   <g id="patch_4">
    <path d="M 850.824 408.96 
L 850.824 61.344 
" style="fill:none;stroke:#000000;stroke-linecap:square;stroke-linejoin:miter;stroke-width:0.8;"/>
   </g>
   <g id="patch_5">
    <path d="M 118.17 408.96 
L 850.824 408.96 
" style="fill:none;stroke:#000000;stroke-linecap:square;stroke-linejoin:miter;stroke-width:0.8;"/>
   </g>
   <g id="patch_6">
    <path d="M 118.17 61.344 
L 850.824 61.344 
" style="fill:none;stroke:#000000;stroke-linecap:square;stroke-linejoin:miter;stroke-width:0.8;"/>
   </g>
   <g id="text_43">
    <!-- Posts with over 100 votes -->
    <defs>
     <path d="M 19.671875 64.796875 
L 19.671875 37.40625 
L 32.078125 37.40625 
Q 38.96875 37.40625 42.71875 40.96875 
Q 46.484375 44.53125 46.484375 51.125 
Q 46.484375 57.671875 42.71875 61.234375 
Q 38.96875 64.796875 32.078125 64.796875 
z
M 9.8125 72.90625 
L 32.078125 72.90625 
Q 44.34375 72.90625 50.609375 67.359375 
Q 56.890625 61.8125 56.890625 51.125 
Q 56.890625 40.328125 50.609375 34.8125 
Q 44.34375 29.296875 32.078125 29.296875 
L 19.671875 29.296875 
L 19.671875 0 
L 9.8125 0 
z
" id="DejaVuSans-50"/>
     <path d="M 4.203125 54.6875 
L 13.1875 54.6875 
L 24.421875 12.015625 
L 35.59375 54.6875 
L 46.1875 54.6875 
L 57.421875 12.015625 
L 68.609375 54.6875 
L 77.59375 54.6875 
L 63.28125 0 
L 52.6875 0 
L 40.921875 44.828125 
L 29.109375 0 
L 18.5 0 
z
" id="DejaVuSans-77"/>
    </defs>
    <g transform="translate(407.02575 55.344)scale(0.12 -0.12)">
     <use xlink:href="#DejaVuSans-50"/>
     <use x="60.255859" xlink:href="#DejaVuSans-6f"/>
     <use x="121.4375" xlink:href="#DejaVuSans-73"/>
     <use x="173.537109" xlink:href="#DejaVuSans-74"/>
     <use x="212.746094" xlink:href="#DejaVuSans-73"/>
     <use x="264.845703" xlink:href="#DejaVuSans-20"/>
     <use x="296.632812" xlink:href="#DejaVuSans-77"/>
     <use x="378.419922" xlink:href="#DejaVuSans-69"/>
     <use x="406.203125" xlink:href="#DejaVuSans-74"/>
     <use x="445.412109" xlink:href="#DejaVuSans-68"/>
     <use x="508.791016" xlink:href="#DejaVuSans-20"/>
     <use x="540.578125" xlink:href="#DejaVuSans-6f"/>
     <use x="601.759766" xlink:href="#DejaVuSans-76"/>
     <use x="660.939453" xlink:href="#DejaVuSans-65"/>
     <use x="722.462891" xlink:href="#DejaVuSans-72"/>
     <use x="763.576172" xlink:href="#DejaVuSans-20"/>
     <use x="795.363281" xlink:href="#DejaVuSans-31"/>
     <use x="858.986328" xlink:href="#DejaVuSans-30"/>
     <use x="922.609375" xlink:href="#DejaVuSans-30"/>
     <use x="986.232422" xlink:href="#DejaVuSans-20"/>
     <use x="1018.019531" xlink:href="#DejaVuSans-76"/>
     <use x="1077.199219" xlink:href="#DejaVuSans-6f"/>
     <use x="1138.380859" xlink:href="#DejaVuSans-74"/>
     <use x="1177.589844" xlink:href="#DejaVuSans-65"/>
     <use x="1239.113281" xlink:href="#DejaVuSans-73"/>
    </g>
   </g>
   <g id="legend_1">
    <g id="patch_7">
     <path d="M 633.832038 84.022125 
L 770.5586 84.022125 
Q 772.5586 84.022125 772.5586 82.022125 
L 772.5586 68.344 
Q 772.5586 66.344 770.5586 66.344 
L 633.832038 66.344 
Q 631.832038 66.344 631.832038 68.344 
L 631.832038 82.022125 
Q 631.832038 84.022125 633.832038 84.022125 
z
" style="fill:#ffffff;opacity:0.8;stroke:#cccccc;stroke-linejoin:miter;"/>
    </g>
    <g id="line2d_48">
     <path d="M 635.832038 74.442438 
L 655.832038 74.442438 
" style="fill:none;stroke:#1f77b4;stroke-linecap:square;stroke-width:1.5;"/>
    </g>
    <g id="line2d_49"/>
    <g id="text_44">
     <!-- Posts over 100 votes -->
     <g transform="translate(663.832038 77.942438)scale(0.1 -0.1)">
      <use xlink:href="#DejaVuSans-50"/>
      <use x="60.255859" xlink:href="#DejaVuSans-6f"/>
      <use x="121.4375" xlink:href="#DejaVuSans-73"/>
      <use x="173.537109" xlink:href="#DejaVuSans-74"/>
      <use x="212.746094" xlink:href="#DejaVuSans-73"/>
      <use x="264.845703" xlink:href="#DejaVuSans-20"/>
      <use x="296.632812" xlink:href="#DejaVuSans-6f"/>
      <use x="357.814453" xlink:href="#DejaVuSans-76"/>
      <use x="416.994141" xlink:href="#DejaVuSans-65"/>
      <use x="478.517578" xlink:href="#DejaVuSans-72"/>
      <use x="519.630859" xlink:href="#DejaVuSans-20"/>
      <use x="551.417969" xlink:href="#DejaVuSans-31"/>
      <use x="615.041016" xlink:href="#DejaVuSans-30"/>
      <use x="678.664062" xlink:href="#DejaVuSans-30"/>
      <use x="742.287109" xlink:href="#DejaVuSans-20"/>
      <use x="774.074219" xlink:href="#DejaVuSans-76"/>
      <use x="833.253906" xlink:href="#DejaVuSans-6f"/>
      <use x="894.435547" xlink:href="#DejaVuSans-74"/>
      <use x="933.644531" xlink:href="#DejaVuSans-65"/>
      <use x="995.167969" xlink:href="#DejaVuSans-73"/>
     </g>
    </g>
   </g>
  </g>
 </g>
 <defs>
  <clipPath id="p5d1917d5d5">
   <rect height="347.616" width="732.654" x="118.17" y="61.344"/>
  </clipPath>
 </defs>
</svg>
